<svg xmlns="http://www.w3.org/2000/svg" xmlns:xlink="http://www.w3.org/1999/xlink" width="32" height="29" viewBox="0 0 32 29">
    <defs>
        <path id="a" d="M0 .007h28.792v23.986H0z"/>
        <path id="c" d="M.077.147h1.76v4.596H.077z"/>
        <path id="e" d="M.074.147h1.76v4.595H.074z"/>
        <path id="g" d="M.027.073h14.936V15H.027z"/>
    </defs>
    <g fill="none" fill-rule="evenodd">
        <path fill="#FFF" d="M-82-114h1440V910H-82z"/>
        <g transform="translate(0 3)">
            <mask id="b" fill="#fff">
                <use xlink:href="#a"/>
            </mask>
            <path fill="#00463F" d="M24.79.007h-1.74a.24.24 0 0 0-.242.236v.787c-.001.972-.809 1.759-1.804 1.758-.056 0-.113-.003-.168-.008-.935-.103-1.64-.88-1.628-1.8V.243a.24.24 0 0 0-.242-.236H9.67a.24.24 0 0 0-.242.236V.98c.01.919-.693 1.696-1.628 1.8-.99.092-1.87-.618-1.964-1.585a1.658 1.658 0 0 1-.008-.165V.243a.24.24 0 0 0-.242-.236H3.988C1.786.008.002 1.752 0 3.903V21.74c0 1.243 1.03 2.251 2.303 2.253h15.24a.263.263 0 0 0 .263-.262.256.256 0 0 0-.061-.164 8.863 8.863 0 0 1-.833-1.16.263.263 0 0 0-.229-.13H2.923c-.551 0-.999-.437-.999-.977V6.887c0-.54.448-.977 1-.977h22.934c.55.002.996.439.996.977V9.49c0 .116.08.217.194.247.47.13.926.3 1.365.506a.268.268 0 0 0 .354-.125.256.256 0 0 0 .025-.108V3.903c0-2.152-1.786-3.896-3.989-3.896h-.013z" mask="url(#b)"/>
        </g>
        <path fill="#00463F" d="M5.228 12h4.544c.126 0 .228.071.228.16v1.68c0 .089-.102.16-.228.16H5.228C5.102 14 5 13.929 5 13.84v-1.68c0-.089.102-.16.228-.16M12.228 12h4.544c.126 0 .228.071.228.16v1.68c0 .089-.102.16-.228.16h-4.544c-.126 0-.228-.071-.228-.16v-1.68c0-.089.102-.16.228-.16M24 12.176v.35c-1.82.1-3.558.614-5 1.474v-1.824c-.002-.096.097-.175.22-.176h4.552c.126 0 .228.079.228.176M5.228 16h4.544c.126 0 .228.071.228.16v1.68c0 .089-.102.16-.228.16H5.228C5.102 18 5 17.929 5 17.84v-1.68c0-.089.102-.16.228-.16M17 16.162v.647c-.283.38-.513.78-.687 1.191H12.23c-.125 0-.227-.07-.229-.157v-1.681c0-.089.102-.16.229-.162h4.557c.122.005.216.077.214.162M5.228 21h4.544c.126 0 .228.071.228.16v1.68c0 .089-.102.16-.228.16H5.228C5.102 23 5 22.929 5 22.84v-1.68c0-.089.102-.16.228-.16M16 23h-3.779c-.12 0-.22-.07-.221-.156V21.16c0-.088.098-.16.221-.161h3.66a4.524 4.524 0 0 0-.053.534c-.019.492.04.983.172 1.466"/>
        <g transform="translate(7)">
            <mask id="d" fill="#fff">
                <use xlink:href="#c"/>
            </mask>
            <path fill="#00463F" d="M.957.147c-.486 0-.88.46-.88 1.026v2.544c0 .567.394 1.026.88 1.026s.88-.46.88-1.026V1.173c0-.567-.394-1.026-.88-1.026" mask="url(#d)"/>
        </g>
        <g transform="translate(20)">
            <mask id="f" fill="#fff">
                <use xlink:href="#e"/>
            </mask>
            <path fill="#00463F" d="M.954.147c-.486 0-.88.46-.88 1.026v2.544c.001.567.395 1.026.881 1.025.485 0 .879-.46.88-1.025V1.173C1.834.606 1.44.147.954.147" mask="url(#f)"/>
        </g>
        <g transform="translate(17 14)">
            <mask id="h" fill="#fff">
                <use xlink:href="#g"/>
            </mask>
            <path fill="#00463F" d="M11.652 11.932a5.975 5.975 0 0 1-3.535 1.62v-.935a.617.617 0 1 0-1.23 0v.934A6.045 6.045 0 0 1 1.49 8.155h.94a.618.618 0 1 0 0-1.231h-.937a6.002 6.002 0 0 1 1.858-3.78A6.009 6.009 0 0 1 6.886 1.52v.941a.617.617 0 1 0 1.231 0v-.93a6.034 6.034 0 0 1 5.393 5.396h-.937a.617.617 0 0 0 0 1.231h.937a6.023 6.023 0 0 1-1.858 3.774m2.189-8.325a7.344 7.344 0 0 0-1.981-2.13A7.468 7.468 0 0 0 1.752 2.774 7.455 7.455 0 0 0 7.503 15a7.46 7.46 0 0 0 6.338-11.393" mask="url(#h)"/>
        </g>
        <path fill="#00463F" d="M28.647 22.878l-3.402-1.598v-2.64c.027-.327-.23-.612-.573-.638-.343-.026-.643.219-.67.546a.54.54 0 0 0 0 .092v3.37l4.097 1.929c.086.04.18.06.276.061.342.003.622-.26.625-.585a.588.588 0 0 0-.353-.537"/>
    </g>
</svg>
