<svg xmlns="http://www.w3.org/2000/svg" xmlns:xlink="http://www.w3.org/1999/xlink" width="32" height="29" viewBox="0 0 32 29">
    <defs>
        <path id="a" d="M0 .302h31.832v13.661H0z"/>
    </defs>
    <g fill="none" fill-rule="evenodd">
        <path fill="#FFF" d="M-664-615H776V409H-664z"/>
        <g transform="translate(0 .537)">
            <mask id="b" fill="#fff">
                <use xlink:href="#a"/>
            </mask>
            <path fill="#00463F" d="M26.914 6.34c.539.49 1.179.755 1.886.755 1.684 0 3.032-1.548 3.032-3.397C31.832 1.85 30.45.302 28.8.302c-1.684 0-3.031 1.547-3.031 3.396 0 .415.067.793.201 1.132l-3.873 3.095c-.539-.49-1.18-.755-1.886-.755-.708 0-1.382.302-1.887.755L14.45 4.83c.102-.34.203-.754.203-1.132 0-1.887-1.381-3.396-3.032-3.396-1.65 0-3.032 1.547-3.032 3.396 0 .415.068.793.203 1.132L4.918 7.925c-.54-.49-1.18-.755-1.886-.755C1.347 7.17 0 8.717 0 10.567c0 1.849 1.381 3.396 3.032 3.396 1.65 0 3.031-1.547 3.031-3.396 0-.416-.067-.793-.202-1.133L9.735 6.34c.539.49 1.179.755 1.886.755.707 0 1.381-.302 1.886-.755l3.874 3.094c-.101.34-.202.755-.202 1.133 0 1.886 1.38 3.396 3.032 3.396 1.65 0 3.031-1.547 3.031-3.396 0-.416-.067-.793-.202-1.133l3.874-3.094z" mask="url(#b)"/>
        </g>
        <path fill="#00463F" d="M5.096 17.722H.867c-.506 0-.867.384-.867.838v7.991c0 .489.398.838.867.838h4.266c.506 0 .867-.384.867-.838V18.56c0-.454-.398-.838-.904-.838M22.13 17.722h-4.263c-.506 0-.867.384-.867.838v7.991c0 .489.397.838.867.838h4.264c.505 0 .867-.384.867-.838V18.56c.036-.454-.362-.838-.867-.838M13.133 11.278H8.867c-.506 0-.867.412-.867.898v15.388c0 .525.398.899.867.899h4.266c.506 0 .867-.412.867-.899V12.176c0-.524-.398-.898-.867-.898M31.096 11.278h-4.229c-.506 0-.867.412-.867.898v15.388c0 .525.398.899.867.899h4.266c.506 0 .867-.412.867-.899V12.176a.88.88 0 0 0-.904-.898"/>
    </g>
</svg>
