<svg xmlns="http://www.w3.org/2000/svg" width="32" height="29" viewBox="0 0 32 29">
    <g fill="none" fill-rule="evenodd">
        <path fill="#FFF" d="M-664-113H776V911H-664z"/>
        <g fill="#00463F">
            <path d="M11.962 5.179h18.076c1.067 0 1.962-.945 1.962-2.072 0-1.126-.86-2.071-1.962-2.071H11.962C10.895 1.036 10 1.98 10 3.107c0 1.127.895 2.072 1.962 2.072M30.038 11.393H11.962c-1.067 0-1.962.945-1.962 2.071 0 1.127.86 2.072 1.962 2.072h18.076c1.067 0 1.962-.945 1.962-2.072 0-1.126-.86-2.071-1.962-2.071M30.038 23.821H11.962c-1.067 0-1.962.945-1.962 2.072 0 1.127.86 2.071 1.962 2.071h18.076c1.067 0 1.962-.944 1.962-2.071 0-1.163-.86-2.072-1.962-2.072M3.428 6.214h3.146C7.378 6.214 8 5.532 8 4.736V1.478C8 .644 7.342 0 6.574 0H3.428C2.623 0 2 .682 2 1.478v3.258c-.036.796.622 1.478 1.427 1.478M6.573 22.786H3.427c-.805 0-1.427.682-1.427 1.478v3.258C2 28.356 2.659 29 3.427 29h3.146C7.378 29 8 28.318 8 27.522v-3.258c0-.796-.622-1.478-1.427-1.478M6.846 8.99L4.13 12.737l-.966-1.312c-.607-.824-1.68-.974-2.466-.337-.786.6-.93 1.761-.322 2.585l2.36 3.26c.321.412.857.674 1.394.674.536 0 1.072-.262 1.394-.712l4.11-5.657c.608-.824.43-1.986-.321-2.585-.787-.6-1.895-.45-2.467.337"/>
        </g>
    </g>
</svg>
